# xmcd
#
# Track frame offsets: 
#        150
#        14000
#        24777
#        39367
#        52053
#        63796
#        76272
#        92133
#        108289
#        120789
#        134055
#        156673
#        168717
#        179683
#        200993
#        217868
#        228069
#        242612
#        254331
#        267802
#        281137
#        301426
#        312581
#
# Disc length: 4329 seconds
#
# Revision: 0
# Processed by: cddbd v1.5.1PL0 Copyright (c) Steve Scherf et al.
# Submitted via: ExactAudioCopy v0.95b2
#
DISCID=4810e717
DTITLE=Various Artist - To nejlepsi z ceske country 5  Stara dobra country
DYEAR=2005
DGENRE=Country
TTITLE0=Rangers a Jarka Hadrabova - Colorado
TTITLE1=Poutnici - Panenka
TTITLE2=Taxmeni - Tipperary
TTITLE3=Michal Tucny - Snidane v trave
TTITLE4=Ladislav Vodicka - Je to zle
TTITLE5=Karel Cernoch a Nada Urbankova - Jackson
TTITLE6=Mirek Cerny - Historie se opakuje
TTITLE7=Pacifik - Mississippi blues
TTITLE8=Vera Martinova - Nebe, peklo, raj
TTITLE9=Pavel Bobek a Jiri Brabec - Country Boy
TTITLE10=Druha trava - Krvava Marie
TTITLE11=Pavel Bobek - Houston
TTITLE12=Mirek Hoffmann - Cekani na vlak
TTITLE13=Lehka noha - Lidi tu uz neznaji
TTITLE14=Wabi Danek - Ranni dest
TTITLE15=Kamelot - Tajny vypravy
TTITLE16=Greenhorns a Honza Vycital - Battledress
TTITLE17=Michal Tucny - Drat v srdci
TTITLE18=Poutnici - Az uslysim hvizdani
TTITLE19=Rangers - Pole s bavlnou
TTITLE20=Pavel Bobek a Karel Zich - Bowery Street
TTITLE21=Waldemar Matuska - Kluci do nepohody
TTITLE22=Rangers - Zvednete kotvy
EXTD=
EXTT0=
EXTT1=
EXTT2=
EXTT3=
EXTT4=
EXTT5=
EXTT6=
EXTT7=
EXTT8=
EXTT9=
EXTT10=
EXTT11=
EXTT12=
EXTT13=
EXTT14=
EXTT15=
EXTT16=
EXTT17=
EXTT18=
EXTT19=
EXTT20=
EXTT21=
EXTT22=
PLAYORDER=
